<svg width="24" height="24" viewBox="0 0 24 24" fill="none" xmlns="http://www.w3.org/2000/svg">
<path d="M20.4939 15.6559L20.4939 15.6559L20.4989 15.658C20.6223 15.7117 20.7252 15.8038 20.7921 15.9207C20.8586 16.0368 20.8861 16.1712 20.8705 16.3041C20.7303 17.3624 20.2099 18.3336 19.4065 19.0366C18.6024 19.7402 17.5696 20.127 16.501 20.1248H16.5C9.53865 20.1248 3.87501 14.4611 3.87501 7.49979L3.87501 7.49875C3.87279 6.43023 4.25962 5.39744 4.96324 4.59329C5.66623 3.78984 6.63742 3.26953 7.69569 3.12931C7.82924 3.11355 7.96434 3.14129 8.08091 3.20845C8.19811 3.27597 8.29025 3.3797 8.34348 3.50405L8.34341 3.50408L8.34702 3.51212L10.33 7.92764C10.3701 8.02205 10.3865 8.12492 10.3775 8.22717C10.3685 8.32875 10.3349 8.42658 10.2795 8.51213L10.279 8.51283L8.29765 10.8689L8.27233 10.899L8.25202 10.9327C8.17819 11.0553 8.13589 11.1943 8.12892 11.3372C8.12195 11.4801 8.15052 11.6226 8.21207 11.7517L8.21205 11.7518L8.21418 11.7561C8.9989 13.3626 10.657 15.0071 12.2795 15.7904L12.2795 15.7904L12.2865 15.7937C12.4161 15.8538 12.5585 15.881 12.7011 15.8729C12.8437 15.8648 12.9822 15.8217 13.1041 15.7473L13.138 15.7266L13.1681 15.7009L15.4839 13.7269C15.5697 13.6712 15.6678 13.6373 15.7697 13.6284C15.8723 13.6194 15.9756 13.6359 16.0702 13.6764L20.4939 15.6559Z" stroke="#032F5C"/>
</svg>
