<svg width="24" height="24" viewBox="0 0 24 24" fill="none" xmlns="http://www.w3.org/2000/svg">
<g clip-path="url(#clip0_241_1878)">
<path d="M21.6875 0.359462H2.1875C1.74506 0.354959 1.3189 0.526157 1.00254 0.835492C0.68617 1.14483 0.50544 1.56703 0.5 2.00946V21.5882C0.506423 22.03 0.687587 22.4512 1.00384 22.7598C1.3201 23.0683 1.7457 23.239 2.1875 23.2345H21.6875C22.13 23.238 22.5558 23.0662 22.872 22.7567C23.1882 22.4471 23.3691 22.025 23.375 21.5826V2.00384C23.3671 1.5627 23.1854 1.14251 22.8694 0.834597C22.5534 0.526683 22.1287 0.355933 21.6875 0.359462Z" fill="#F0EEE0"/>
<path d="M3.94969 8.49609H7.34531V19.4217H3.94969V8.49609ZM5.64844 3.05859C6.0379 3.05859 6.41861 3.17411 6.74241 3.39052C7.06621 3.60693 7.31855 3.91452 7.4675 4.27437C7.61646 4.63422 7.65534 5.03017 7.57922 5.41212C7.5031 5.79407 7.31541 6.14486 7.03989 6.42012C6.76437 6.69538 6.4134 6.88274 6.03137 6.95849C5.64935 7.03425 5.25344 6.99499 4.89373 6.84569C4.53402 6.69639 4.22667 6.44376 4.01057 6.11976C3.79447 5.79575 3.67932 5.41493 3.67969 5.02547C3.68019 4.50365 3.88783 4.00337 4.25698 3.63456C4.62614 3.26576 5.12662 3.05859 5.64844 3.05859ZM9.47531 8.49609H12.7303V9.99609H12.7753C13.2291 9.13734 14.3353 8.23172 15.9872 8.23172C19.4259 8.22422 20.0634 10.4873 20.0634 13.4217V19.4217H16.6678V14.1061C16.6678 12.8405 16.6453 11.2111 14.9034 11.2111C13.1616 11.2111 12.8653 12.5911 12.8653 14.0236V19.4217H9.47531V8.49609Z" fill="#032F5C"/>
</g>
<defs>
<clipPath id="clip0_241_1878">
<rect width="24" height="24" fill="white"/>
</clipPath>
</defs>
</svg>
