<svg width="305" height="91" viewBox="0 0 305 91" fill="none" xmlns="http://www.w3.org/2000/svg">
<path d="M31.7698 25.2582C26.286 34.4819 16.0471 41.9207 4.17029 42.5434V38.3317C18.7859 37.4389 30.049 25.3305 30.7031 12.0684H36.0221C36.6762 25.3305 47.9383 37.4389 62.555 38.3317V42.5434C50.6782 41.9207 40.4382 34.4819 34.9544 25.2582V65.0839C40.4403 55.8594 50.6782 48.42 62.555 47.7974V52.009C47.9383 52.9018 36.6762 65.0102 36.0221 78.2724H30.7031C30.049 65.0102 18.7859 52.9018 4.17029 52.009V47.7974C16.0471 48.42 26.2839 55.8594 31.7698 65.0839V25.2582Z" fill="#F0EEE0"/>
<path d="M92.316 18.9721C92.1738 17.7716 91.5972 16.8395 90.5862 16.1761C89.5752 15.5126 88.3352 15.1809 86.8661 15.1809C85.7919 15.1809 84.852 15.3547 84.0464 15.7022C83.2486 16.0497 82.6247 16.5276 82.1745 17.1357C81.7322 17.7439 81.511 18.435 81.511 19.2091C81.511 19.8567 81.665 20.4136 81.9731 20.8796C82.289 21.3377 82.6918 21.7207 83.1815 22.0288C83.6712 22.3289 84.1846 22.5777 84.7217 22.7752C85.2588 22.9647 85.7524 23.1187 86.2026 23.2372L88.6669 23.9007C89.2988 24.0665 90.0017 24.2956 90.7758 24.5878C91.5577 24.8801 92.3041 25.2789 93.015 25.7844C93.7337 26.282 94.3261 26.9218 94.7921 27.7037C95.2581 28.4857 95.4911 29.4453 95.4911 30.5827C95.4911 31.8938 95.1475 33.0786 94.4604 34.137C93.7811 35.1953 92.7859 36.0365 91.4748 36.6605C90.1715 37.2844 88.5879 37.5964 86.7239 37.5964C84.9863 37.5964 83.4816 37.316 82.21 36.7553C80.9463 36.1945 79.9511 35.4125 79.2244 34.4094C78.5057 33.4064 78.0989 32.2413 78.0041 30.9144H81.0371C81.1161 31.8306 81.4241 32.5889 81.9612 33.1891C82.5062 33.7815 83.1933 34.2238 84.0227 34.5161C84.8599 34.8004 85.7603 34.9426 86.7239 34.9426C87.8455 34.9426 88.8525 34.7609 89.745 34.3976C90.6376 34.0264 91.3445 33.513 91.8657 32.8574C92.387 32.194 92.6477 31.4199 92.6477 30.5353C92.6477 29.7297 92.4226 29.0741 91.9724 28.5686C91.5222 28.0631 90.9298 27.6524 90.1952 27.3365C89.4607 27.0205 88.6669 26.7441 87.8139 26.5071L84.8283 25.6541C82.9327 25.1091 81.432 24.3311 80.3262 23.3201C79.2205 22.3092 78.6676 20.9862 78.6676 19.3512C78.6676 17.9927 79.0349 16.808 79.7694 15.797C80.5119 14.7781 81.507 13.9882 82.755 13.4275C84.0108 12.8588 85.4128 12.5744 86.9609 12.5744C88.5247 12.5744 89.9149 12.8548 91.1312 13.4156C92.3475 13.9685 93.3111 14.7267 94.022 15.6903C94.7407 16.6539 95.1199 17.7479 95.1594 18.9721H92.316ZM107.336 37.549C105.693 37.549 104.251 37.1581 103.011 36.3761C101.779 35.5942 100.816 34.5003 100.121 33.0944C99.4334 31.6885 99.0898 30.0456 99.0898 28.1658C99.0898 26.2702 99.4334 24.6155 100.121 23.2017C100.816 21.7879 101.779 20.69 103.011 19.9081C104.251 19.1261 105.693 18.7352 107.336 18.7352C108.979 18.7352 110.416 19.1261 111.648 19.9081C112.888 20.69 113.852 21.7879 114.539 23.2017C115.234 24.6155 115.582 26.2702 115.582 28.1658C115.582 30.0456 115.234 31.6885 114.539 33.0944C113.852 34.5003 112.888 35.5942 111.648 36.3761C110.416 37.1581 108.979 37.549 107.336 37.549ZM107.336 35.0374C108.584 35.0374 109.61 34.7175 110.416 34.0777C111.222 33.4379 111.818 32.5968 112.205 31.5542C112.592 30.5116 112.786 29.3821 112.786 28.1658C112.786 26.9494 112.592 25.816 112.205 24.7655C111.818 23.7151 111.222 22.866 110.416 22.2183C109.61 21.5707 108.584 21.2468 107.336 21.2468C106.088 21.2468 105.061 21.5707 104.255 22.2183C103.45 22.866 102.853 23.7151 102.466 24.7655C102.079 25.816 101.886 26.9494 101.886 28.1658C101.886 29.3821 102.079 30.5116 102.466 31.5542C102.853 32.5968 103.45 33.4379 104.255 34.0777C105.061 34.7175 106.088 35.0374 107.336 35.0374ZM131.318 29.7297V18.9721H134.114V37.1699H131.318V34.0896H131.128C130.702 35.0137 130.039 35.7996 129.138 36.4472C128.238 37.087 127.1 37.4069 125.726 37.4069C124.589 37.4069 123.578 37.1581 122.693 36.6605C121.808 36.155 121.113 35.3967 120.608 34.3858C120.102 33.3669 119.85 32.0834 119.85 30.5353V18.9721H122.646V30.3457C122.646 31.6727 123.017 32.731 123.759 33.5209C124.51 34.3107 125.465 34.7056 126.626 34.7056C127.321 34.7056 128.028 34.5279 128.747 34.1725C129.474 33.8171 130.082 33.2721 130.572 32.5375C131.069 31.803 131.318 30.867 131.318 29.7297ZM142.031 26.2228V37.1699H139.235V18.9721H141.936V21.8155H142.173C142.6 20.8914 143.248 20.149 144.116 19.5882C144.985 19.0195 146.107 18.7352 147.481 18.7352C148.713 18.7352 149.791 18.9879 150.715 19.4934C151.64 19.991 152.358 20.7492 152.872 21.7681C153.385 22.7791 153.642 24.0586 153.642 25.6067V37.1699H150.846V25.7963C150.846 24.3667 150.475 23.253 149.732 22.4553C148.99 21.6496 147.971 21.2468 146.675 21.2468C145.783 21.2468 144.985 21.4403 144.282 21.8274C143.587 22.2144 143.038 22.7791 142.635 23.5216C142.233 24.264 142.031 25.1644 142.031 26.2228ZM165.623 37.549C164.106 37.549 162.767 37.166 161.606 36.3998C160.445 35.6258 159.537 34.5358 158.881 33.1299C158.226 31.7161 157.898 30.0456 157.898 28.1184C157.898 26.207 158.226 24.5483 158.881 23.1424C159.537 21.7365 160.449 20.6505 161.618 19.8844C162.787 19.1182 164.138 18.7352 165.67 18.7352C166.855 18.7352 167.791 18.9326 168.478 19.3275C169.173 19.7145 169.702 20.1569 170.065 20.6545C170.437 21.1442 170.725 21.547 170.93 21.8629H171.167V12.9062H173.963V37.1699H171.262V34.3739H170.93C170.725 34.7056 170.433 35.1242 170.054 35.6297C169.674 36.1273 169.133 36.5736 168.43 36.9685C167.728 37.3555 166.792 37.549 165.623 37.549ZM166.002 35.0374C167.123 35.0374 168.071 34.7451 168.845 34.1606C169.619 33.5683 170.208 32.7508 170.61 31.7082C171.013 30.6577 171.215 29.4453 171.215 28.071C171.215 26.7125 171.017 25.5238 170.622 24.5049C170.227 23.4781 169.643 22.6804 168.869 22.1117C168.095 21.5351 167.139 21.2468 166.002 21.2468C164.817 21.2468 163.83 21.5509 163.04 22.1591C162.258 22.7594 161.669 23.5768 161.275 24.6115C160.888 25.6383 160.694 26.7915 160.694 28.071C160.694 29.3663 160.891 30.5432 161.286 31.6016C161.689 32.6521 162.282 33.4893 163.064 34.1133C163.853 34.7293 164.833 35.0374 166.002 35.0374ZM79.0467 78.1699V53.9062H93.5955V56.5126H81.9849V64.7111H92.5055V67.3176H81.9849V78.1699H79.0467ZM108.577 70.7297V59.9721H111.373V78.1699H108.577V75.0896H108.387C107.961 76.0137 107.297 76.7996 106.397 77.4472C105.496 78.087 104.359 78.4069 102.985 78.4069C101.847 78.4069 100.836 78.1581 99.9517 77.6605C99.0671 77.155 98.372 76.3967 97.8665 75.3858C97.361 74.3669 97.1083 73.0834 97.1083 71.5353V59.9721H99.9043V71.3457C99.9043 72.6727 100.276 73.731 101.018 74.5209C101.768 75.3107 102.724 75.7056 103.885 75.7056C104.58 75.7056 105.287 75.5279 106.006 75.1725C106.732 74.8171 107.341 74.2721 107.83 73.5375C108.328 72.803 108.577 71.867 108.577 70.7297ZM119.29 67.2228V78.1699H116.494V59.9721H119.195V62.8155H119.432C119.859 61.8914 120.506 61.149 121.375 60.5882C122.244 60.0195 123.365 59.7352 124.74 59.7352C125.972 59.7352 127.05 59.9879 127.974 60.4934C128.898 60.991 129.617 61.7492 130.13 62.7681C130.644 63.7791 130.9 65.0586 130.9 66.6067V78.1699H128.104V66.7963C128.104 65.3667 127.733 64.253 126.991 63.4553C126.248 62.6496 125.229 62.2468 123.934 62.2468C123.042 62.2468 122.244 62.4403 121.541 62.8274C120.846 63.2144 120.297 63.7791 119.894 64.5216C119.491 65.264 119.29 66.1644 119.29 67.2228ZM142.881 78.549C141.365 78.549 140.026 78.166 138.865 77.3998C137.704 76.6258 136.796 75.5358 136.14 74.1299C135.484 72.7161 135.157 71.0456 135.157 69.1184C135.157 67.207 135.484 65.5483 136.14 64.1424C136.796 62.7365 137.708 61.6505 138.877 60.8844C140.046 60.1182 141.396 59.7352 142.929 59.7352C144.113 59.7352 145.049 59.9326 145.737 60.3275C146.432 60.7145 146.961 61.1569 147.324 61.6545C147.695 62.1442 147.984 62.547 148.189 62.8629H148.426V53.9062H151.222V78.1699H148.521V75.3739H148.189C147.984 75.7056 147.691 76.1242 147.312 76.6297C146.933 77.1273 146.392 77.5736 145.689 77.9685C144.986 78.3555 144.05 78.549 142.881 78.549ZM143.26 76.0374C144.382 76.0374 145.33 75.7451 146.104 75.1606C146.878 74.5683 147.466 73.7508 147.869 72.7082C148.272 71.6577 148.473 70.4453 148.473 69.071C148.473 67.7125 148.276 66.5238 147.881 65.5049C147.486 64.4781 146.902 63.6804 146.127 63.1117C145.353 62.5351 144.398 62.2468 143.26 62.2468C142.076 62.2468 141.088 62.5509 140.298 63.1591C139.517 63.7594 138.928 64.5768 138.533 65.6115C138.146 66.6383 137.953 67.7915 137.953 69.071C137.953 70.3663 138.15 71.5432 138.545 72.6016C138.948 73.6521 139.54 74.4893 140.322 75.1133C141.112 75.7293 142.091 76.0374 143.26 76.0374ZM179.763 59.9721C179.62 58.7716 179.044 57.8395 178.033 57.1761C177.022 56.5126 175.782 56.1809 174.313 56.1809C173.239 56.1809 172.299 56.3547 171.493 56.7022C170.695 57.0497 170.071 57.5276 169.621 58.1357C169.179 58.7439 168.958 59.435 168.958 60.2091C168.958 60.8567 169.112 61.4136 169.42 61.8796C169.736 62.3377 170.138 62.7207 170.628 63.0288C171.118 63.3289 171.631 63.5777 172.168 63.7752C172.705 63.9647 173.199 64.1187 173.649 64.2372L176.114 64.9007C176.745 65.0665 177.448 65.2956 178.222 65.5878C179.004 65.8801 179.751 66.2789 180.462 66.7844C181.18 67.282 181.773 67.9218 182.239 68.7037C182.705 69.4857 182.938 70.4453 182.938 71.5827C182.938 72.8938 182.594 74.0786 181.907 75.137C181.228 76.1953 180.233 77.0365 178.921 77.6605C177.618 78.2844 176.035 78.5964 174.171 78.5964C172.433 78.5964 170.928 78.316 169.657 77.7553C168.393 77.1945 167.398 76.4125 166.671 75.4094C165.952 74.4064 165.546 73.2413 165.451 71.9144H168.484C168.563 72.8306 168.871 73.5889 169.408 74.1891C169.953 74.7815 170.64 75.2238 171.469 75.5161C172.307 75.8004 173.207 75.9426 174.171 75.9426C175.292 75.9426 176.299 75.7609 177.192 75.3976C178.084 75.0264 178.791 74.513 179.312 73.8574C179.834 73.194 180.094 72.4199 180.094 71.5353C180.094 70.7297 179.869 70.0741 179.419 69.5686C178.969 69.0631 178.376 68.6524 177.642 68.3365C176.907 68.0205 176.114 67.7441 175.261 67.5071L172.275 66.6541C170.379 66.1091 168.879 65.3311 167.773 64.3201C166.667 63.3092 166.114 61.9862 166.114 60.3512C166.114 58.9927 166.482 57.808 167.216 56.797C167.959 55.7781 168.954 54.9882 170.202 54.4275C171.458 53.8588 172.859 53.5744 174.408 53.5744C175.971 53.5744 177.362 53.8548 178.578 54.4156C179.794 54.9685 180.758 55.7267 181.469 56.6903C182.187 57.6539 182.567 58.7479 182.606 59.9721H179.763ZM195.019 78.549C193.266 78.549 191.753 78.162 190.482 77.388C189.218 76.606 188.243 75.5161 187.555 74.1181C186.876 72.7122 186.536 71.0772 186.536 69.2132C186.536 67.3492 186.876 65.7063 187.555 64.2846C188.243 62.855 189.198 61.7413 190.422 60.9436C191.655 60.138 193.092 59.7352 194.735 59.7352C195.683 59.7352 196.619 59.8931 197.543 60.2091C198.467 60.525 199.308 61.0384 200.066 61.7492C200.825 62.4522 201.429 63.3842 201.879 64.5453C202.329 65.7063 202.554 67.1359 202.554 68.8341V70.0188H188.527V67.6019H199.711C199.711 66.5751 199.506 65.6589 199.095 64.8533C198.692 64.0477 198.115 63.4118 197.365 62.9458C196.623 62.4798 195.746 62.2468 194.735 62.2468C193.621 62.2468 192.658 62.5233 191.844 63.0762C191.039 63.6211 190.419 64.332 189.984 65.2087C189.55 66.0854 189.332 67.0253 189.332 68.0284V69.6397C189.332 71.014 189.569 72.179 190.043 73.1347C190.525 74.0825 191.193 74.8052 192.046 75.3028C192.899 75.7925 193.89 76.0374 195.019 76.0374C195.754 76.0374 196.417 75.9347 197.01 75.7293C197.61 75.5161 198.127 75.2001 198.562 74.7815C198.996 74.355 199.332 73.8258 199.569 73.194L202.27 73.9522C201.986 74.8684 201.508 75.674 200.836 76.3691C200.165 77.0563 199.336 77.5933 198.348 77.9804C197.361 78.3595 196.251 78.549 195.019 78.549ZM206.808 78.1699V59.9721H209.509V62.7207H209.698C210.03 61.8203 210.63 61.0897 211.499 60.5289C212.368 59.9682 213.347 59.6878 214.437 59.6878C214.643 59.6878 214.899 59.6917 215.208 59.6996C215.516 59.7075 215.749 59.7194 215.907 59.7352V62.5786C215.812 62.5549 215.595 62.5193 215.255 62.4719C214.923 62.4166 214.572 62.389 214.2 62.389C213.316 62.389 212.526 62.5746 211.831 62.9458C211.144 63.3092 210.599 63.8147 210.196 64.4623C209.801 65.1021 209.604 65.8327 209.604 66.6541V78.1699H206.808ZM234.655 59.9721L227.926 78.1699H225.082L218.353 59.9721H221.386L226.409 74.4735H226.599L231.622 59.9721H234.655ZM238.346 78.1699V59.9721H241.142V78.1699H238.346ZM239.767 56.9391C239.222 56.9391 238.753 56.7535 238.358 56.3823C237.971 56.0111 237.777 55.5648 237.777 55.0435C237.777 54.5222 237.971 54.076 238.358 53.7048C238.753 53.3335 239.222 53.1479 239.767 53.1479C240.312 53.1479 240.778 53.3335 241.165 53.7048C241.56 54.076 241.758 54.5222 241.758 55.0435C241.758 55.5648 241.56 56.0111 241.165 56.3823C240.778 56.7535 240.312 56.9391 239.767 56.9391ZM253.656 78.549C251.95 78.549 250.481 78.1462 249.248 77.3406C248.016 76.535 247.068 75.4252 246.405 74.0114C245.742 72.5976 245.41 70.9824 245.41 69.1658C245.41 67.3176 245.749 65.6866 246.429 64.2728C247.116 62.8511 248.072 61.7413 249.296 60.9436C250.528 60.138 251.965 59.7352 253.608 59.7352C254.888 59.7352 256.041 59.9721 257.068 60.446C258.095 60.9199 258.936 61.5834 259.591 62.4364C260.247 63.2894 260.654 64.2846 260.812 65.422H258.016C257.802 64.5926 257.328 63.8581 256.594 63.2183C255.867 62.5707 254.888 62.2468 253.656 62.2468C252.566 62.2468 251.61 62.5312 250.789 63.0999C249.975 63.6606 249.339 64.4544 248.881 65.4812C248.431 66.5001 248.206 67.6967 248.206 69.071C248.206 70.4769 248.427 71.7012 248.869 72.7437C249.32 73.7863 249.951 74.5959 250.765 75.1725C251.586 75.7491 252.55 76.0374 253.656 76.0374C254.382 76.0374 255.042 75.911 255.634 75.6582C256.227 75.4055 256.728 75.0422 257.139 74.5683C257.55 74.0944 257.842 73.5257 258.016 72.8622H260.812C260.654 73.9364 260.263 74.904 259.639 75.7649C259.023 76.6179 258.205 77.2972 257.186 77.8026C256.175 78.3002 254.998 78.549 253.656 78.549ZM272.529 78.549C270.775 78.549 269.263 78.162 267.991 77.388C266.728 76.606 265.752 75.5161 265.065 74.1181C264.386 72.7122 264.046 71.0772 264.046 69.2132C264.046 67.3492 264.386 65.7063 265.065 64.2846C265.752 62.855 266.708 61.7413 267.932 60.9436C269.164 60.138 270.602 59.7352 272.245 59.7352C273.192 59.7352 274.128 59.8931 275.052 60.2091C275.976 60.525 276.818 61.0384 277.576 61.7492C278.334 62.4522 278.938 63.3842 279.389 64.5453C279.839 65.7063 280.064 67.1359 280.064 68.8341V70.0188H266.036V67.6019H277.22C277.22 66.5751 277.015 65.6589 276.604 64.8533C276.202 64.0477 275.625 63.4118 274.875 62.9458C274.132 62.4798 273.255 62.2468 272.245 62.2468C271.131 62.2468 270.167 62.5233 269.354 63.0762C268.548 63.6211 267.928 64.332 267.494 65.2087C267.059 66.0854 266.842 67.0253 266.842 68.0284V69.6397C266.842 71.014 267.079 72.179 267.553 73.1347C268.035 74.0825 268.702 74.8052 269.555 75.3028C270.408 75.7925 271.399 76.0374 272.529 76.0374C273.263 76.0374 273.927 75.9347 274.519 75.7293C275.12 75.5161 275.637 75.2001 276.071 74.7815C276.506 74.355 276.841 73.8258 277.078 73.194L279.78 73.9522C279.495 74.8684 279.017 75.674 278.346 76.3691C277.675 77.0563 276.845 77.5933 275.858 77.9804C274.871 78.3595 273.761 78.549 272.529 78.549ZM297.207 64.0477L294.696 64.7585C294.538 64.3399 294.305 63.9331 293.997 63.5382C293.696 63.1354 293.286 62.8037 292.764 62.543C292.243 62.2824 291.576 62.152 290.762 62.152C289.649 62.152 288.72 62.4087 287.978 62.9221C287.243 63.4276 286.876 64.0714 286.876 64.8533C286.876 65.5483 287.129 66.0973 287.634 66.5001C288.14 66.9029 288.93 67.2386 290.004 67.5071L292.705 68.1706C294.332 68.5655 295.545 69.1697 296.342 69.9833C297.14 70.7889 297.539 71.8275 297.539 73.0992C297.539 74.1418 297.239 75.0738 296.639 75.8952C296.046 76.7166 295.217 77.3643 294.151 77.8382C293.084 78.3121 291.844 78.549 290.43 78.549C288.574 78.549 287.038 78.1462 285.822 77.3406C284.605 76.535 283.835 75.3581 283.512 73.81L286.165 73.1466C286.418 74.126 286.896 74.8605 287.599 75.3502C288.31 75.8399 289.238 76.0848 290.383 76.0848C291.686 76.0848 292.721 75.8083 293.487 75.2554C294.261 74.6946 294.648 74.0233 294.648 73.2413C294.648 72.6095 294.427 72.0803 293.985 71.6538C293.542 71.2194 292.863 70.8955 291.947 70.6823L288.914 69.9714C287.247 69.5765 286.023 68.9644 285.241 68.1351C284.467 67.2978 284.08 66.2513 284.08 64.9955C284.08 63.9687 284.368 63.0604 284.945 62.2705C285.53 61.4807 286.323 60.8607 287.326 60.4105C288.337 59.9603 289.483 59.7352 290.762 59.7352C292.563 59.7352 293.977 60.1301 295.004 60.9199C296.038 61.7097 296.773 62.7523 297.207 64.0477Z" fill="#F0EEE0"/>
</svg>
