<svg width="32" height="36" viewBox="0 0 32 36" fill="none" xmlns="http://www.w3.org/2000/svg">
<path d="M15.1543 7.07265C12.2426 12.0186 6.80612 16.0075 0.5 16.3413V14.083C8.26032 13.6042 14.2406 7.11145 14.5879 0H17.4121C17.7594 7.11145 23.7391 13.6042 31.5 14.083V16.3413C25.1939 16.0075 19.7569 12.0186 16.8452 7.07265V28.428C19.758 23.4817 25.1939 19.4925 31.5 19.1587V21.417C23.7391 21.8958 17.7594 28.3886 17.4121 35.5H14.5879C14.2406 28.3886 8.26032 21.8958 0.5 21.417V19.1587C6.80612 19.4925 12.2415 23.4817 15.1543 28.428V7.07265Z" fill="#395B55" fill-opacity="0.4"/>
</svg>
